<mxfile host="app.diagrams.net" modified="2024-04-18T10:38:28.791Z" agent="Mozilla/5.0 (Windows NT 10.0; Win64; x64) AppleWebKit/537.36 (KHTML, like Gecko) Chrome/123.0.0.0 Safari/537.36 Edg/123.0.0.0" version="24.2.1" etag="INcOpjoR4dxYEjyYAE_3" type="github">
  <diagram name="第 1 页" id="ZHHgzi8GY6RrDg2CJERy">
    <mxGraphModel>
      <root>
        <mxCell id="0" />
        <mxCell id="1" parent="0" />
      </root>
    </mxGraphModel>
  </diagram>
</mxfile>
